<mxfile host="app.diagrams.net" agent="Mozilla/5.0 (Windows NT 10.0; Win64; x64) AppleWebKit/537.36 (KHTML, like Gecko) Chrome/128.0.0.0 Safari/537.36 Edg/128.0.0.0" version="24.7.7">
  <diagram id="C5RBs43oDa-KdzZeNtuy" name="Page-1">
    <mxGraphModel dx="2227" dy="1364" grid="1" gridSize="10" guides="1" tooltips="1" connect="1" arrows="1" fold="1" page="1" pageScale="1" pageWidth="827" pageHeight="1169" math="0" shadow="0">
      <root>
        <mxCell id="WIyWlLk6GJQsqaUBKTNV-0" />
        <mxCell id="WIyWlLk6GJQsqaUBKTNV-1" parent="WIyWlLk6GJQsqaUBKTNV-0" />
        <mxCell id="P1gIIQeME5yMetn6nnW5-2" style="edgeStyle=orthogonalEdgeStyle;rounded=0;orthogonalLoop=1;jettySize=auto;html=1;entryX=0.5;entryY=0;entryDx=0;entryDy=0;" edge="1" parent="WIyWlLk6GJQsqaUBKTNV-1" source="P1gIIQeME5yMetn6nnW5-0" target="P1gIIQeME5yMetn6nnW5-1">
          <mxGeometry relative="1" as="geometry" />
        </mxCell>
        <mxCell id="P1gIIQeME5yMetn6nnW5-0" value="Start" style="ellipse;whiteSpace=wrap;html=1;fillColor=#dae8fc;strokeColor=#6c8ebf;gradientColor=#7ea6e0;" vertex="1" parent="WIyWlLk6GJQsqaUBKTNV-1">
          <mxGeometry x="268" y="50" width="76" height="50" as="geometry" />
        </mxCell>
        <mxCell id="P1gIIQeME5yMetn6nnW5-4" value="" style="edgeStyle=orthogonalEdgeStyle;rounded=0;orthogonalLoop=1;jettySize=auto;html=1;" edge="1" parent="WIyWlLk6GJQsqaUBKTNV-1" source="P1gIIQeME5yMetn6nnW5-1" target="P1gIIQeME5yMetn6nnW5-3">
          <mxGeometry relative="1" as="geometry" />
        </mxCell>
        <mxCell id="P1gIIQeME5yMetn6nnW5-1" value="Interface: Demo&lt;div&gt;Sabtu, 24 Agustus 2024&lt;/div&gt;&lt;div&gt;Zoom&lt;/div&gt;" style="rounded=0;whiteSpace=wrap;html=1;fillColor=#dae8fc;strokeColor=#6c8ebf;gradientColor=#7ea6e0;" vertex="1" parent="WIyWlLk6GJQsqaUBKTNV-1">
          <mxGeometry x="233" y="140" width="146" height="60" as="geometry" />
        </mxCell>
        <mxCell id="P1gIIQeME5yMetn6nnW5-6" value="" style="edgeStyle=orthogonalEdgeStyle;rounded=0;orthogonalLoop=1;jettySize=auto;html=1;" edge="1" parent="WIyWlLk6GJQsqaUBKTNV-1" source="P1gIIQeME5yMetn6nnW5-3" target="P1gIIQeME5yMetn6nnW5-5">
          <mxGeometry relative="1" as="geometry" />
        </mxCell>
        <mxCell id="P1gIIQeME5yMetn6nnW5-3" value="Interface: Mainphase&lt;div&gt;Sabtu, 31 Agustus 2024&lt;/div&gt;&lt;div&gt;Gedung D4 Lantai 3&lt;/div&gt;" style="whiteSpace=wrap;html=1;fillColor=#dae8fc;strokeColor=#6c8ebf;rounded=0;gradientColor=#7ea6e0;" vertex="1" parent="WIyWlLk6GJQsqaUBKTNV-1">
          <mxGeometry x="238" y="260" width="136" height="60" as="geometry" />
        </mxCell>
        <mxCell id="P1gIIQeME5yMetn6nnW5-8" value="" style="edgeStyle=orthogonalEdgeStyle;rounded=0;orthogonalLoop=1;jettySize=auto;html=1;" edge="1" parent="WIyWlLk6GJQsqaUBKTNV-1" source="P1gIIQeME5yMetn6nnW5-5" target="P1gIIQeME5yMetn6nnW5-7">
          <mxGeometry relative="1" as="geometry" />
        </mxCell>
        <mxCell id="P1gIIQeME5yMetn6nnW5-9" value="tidak" style="edgeLabel;html=1;align=center;verticalAlign=middle;resizable=0;points=[];" vertex="1" connectable="0" parent="P1gIIQeME5yMetn6nnW5-8">
          <mxGeometry x="-0.1538" y="-2" relative="1" as="geometry">
            <mxPoint as="offset" />
          </mxGeometry>
        </mxCell>
        <mxCell id="P1gIIQeME5yMetn6nnW5-11" value="" style="edgeStyle=orthogonalEdgeStyle;rounded=0;orthogonalLoop=1;jettySize=auto;html=1;" edge="1" parent="WIyWlLk6GJQsqaUBKTNV-1" source="P1gIIQeME5yMetn6nnW5-5" target="P1gIIQeME5yMetn6nnW5-10">
          <mxGeometry relative="1" as="geometry" />
        </mxCell>
        <mxCell id="P1gIIQeME5yMetn6nnW5-12" value="ya" style="edgeLabel;html=1;align=center;verticalAlign=middle;resizable=0;points=[];" vertex="1" connectable="0" parent="P1gIIQeME5yMetn6nnW5-11">
          <mxGeometry x="-0.0277" y="2" relative="1" as="geometry">
            <mxPoint as="offset" />
          </mxGeometry>
        </mxCell>
        <mxCell id="P1gIIQeME5yMetn6nnW5-5" value="Mengikuti Interface: Mainphase dengan baik" style="rhombus;whiteSpace=wrap;html=1;fillColor=#dae8fc;strokeColor=#6c8ebf;rounded=0;gradientColor=#7ea6e0;" vertex="1" parent="WIyWlLk6GJQsqaUBKTNV-1">
          <mxGeometry x="226.5" y="370" width="159" height="150" as="geometry" />
        </mxCell>
        <mxCell id="P1gIIQeME5yMetn6nnW5-15" style="edgeStyle=orthogonalEdgeStyle;rounded=0;orthogonalLoop=1;jettySize=auto;html=1;entryX=1;entryY=0.5;entryDx=0;entryDy=0;" edge="1" parent="WIyWlLk6GJQsqaUBKTNV-1" source="P1gIIQeME5yMetn6nnW5-7" target="P1gIIQeME5yMetn6nnW5-10">
          <mxGeometry relative="1" as="geometry">
            <Array as="points">
              <mxPoint x="542" y="620" />
            </Array>
          </mxGeometry>
        </mxCell>
        <mxCell id="P1gIIQeME5yMetn6nnW5-7" value="Tugas tambahan" style="whiteSpace=wrap;html=1;fillColor=#dae8fc;strokeColor=#6c8ebf;rounded=0;gradientColor=#7ea6e0;" vertex="1" parent="WIyWlLk6GJQsqaUBKTNV-1">
          <mxGeometry x="485" y="415" width="120" height="60" as="geometry" />
        </mxCell>
        <mxCell id="P1gIIQeME5yMetn6nnW5-14" value="" style="edgeStyle=orthogonalEdgeStyle;rounded=0;orthogonalLoop=1;jettySize=auto;html=1;" edge="1" parent="WIyWlLk6GJQsqaUBKTNV-1" source="P1gIIQeME5yMetn6nnW5-10" target="P1gIIQeME5yMetn6nnW5-13">
          <mxGeometry relative="1" as="geometry" />
        </mxCell>
        <mxCell id="P1gIIQeME5yMetn6nnW5-10" value="Interface: PKMMPD&lt;div&gt;Minggu, 1 september 2024&lt;/div&gt;&lt;div&gt;Gedung D4 Lantai 3&lt;/div&gt;" style="whiteSpace=wrap;html=1;fillColor=#dae8fc;strokeColor=#6c8ebf;rounded=0;gradientColor=#7ea6e0;" vertex="1" parent="WIyWlLk6GJQsqaUBKTNV-1">
          <mxGeometry x="233" y="590" width="146" height="60" as="geometry" />
        </mxCell>
        <mxCell id="P1gIIQeME5yMetn6nnW5-17" value="" style="edgeStyle=orthogonalEdgeStyle;rounded=0;orthogonalLoop=1;jettySize=auto;html=1;" edge="1" parent="WIyWlLk6GJQsqaUBKTNV-1" source="P1gIIQeME5yMetn6nnW5-13" target="P1gIIQeME5yMetn6nnW5-16">
          <mxGeometry relative="1" as="geometry" />
        </mxCell>
        <mxCell id="P1gIIQeME5yMetn6nnW5-21" value="tidak" style="edgeLabel;html=1;align=center;verticalAlign=middle;resizable=0;points=[];" vertex="1" connectable="0" parent="P1gIIQeME5yMetn6nnW5-17">
          <mxGeometry x="0.0796" y="-3" relative="1" as="geometry">
            <mxPoint as="offset" />
          </mxGeometry>
        </mxCell>
        <mxCell id="P1gIIQeME5yMetn6nnW5-19" value="" style="edgeStyle=orthogonalEdgeStyle;rounded=0;orthogonalLoop=1;jettySize=auto;html=1;" edge="1" parent="WIyWlLk6GJQsqaUBKTNV-1" source="P1gIIQeME5yMetn6nnW5-13" target="P1gIIQeME5yMetn6nnW5-18">
          <mxGeometry relative="1" as="geometry" />
        </mxCell>
        <mxCell id="P1gIIQeME5yMetn6nnW5-20" value="ya" style="edgeLabel;html=1;align=center;verticalAlign=middle;resizable=0;points=[];" vertex="1" connectable="0" parent="P1gIIQeME5yMetn6nnW5-19">
          <mxGeometry x="-0.1833" y="-1" relative="1" as="geometry">
            <mxPoint as="offset" />
          </mxGeometry>
        </mxCell>
        <mxCell id="P1gIIQeME5yMetn6nnW5-13" value="Mengeikuti Interface: PKMMPD dengan baik" style="rhombus;whiteSpace=wrap;html=1;fillColor=#dae8fc;strokeColor=#6c8ebf;rounded=0;gradientColor=#7ea6e0;" vertex="1" parent="WIyWlLk6GJQsqaUBKTNV-1">
          <mxGeometry x="223" y="720" width="166" height="140" as="geometry" />
        </mxCell>
        <mxCell id="P1gIIQeME5yMetn6nnW5-22" style="edgeStyle=orthogonalEdgeStyle;rounded=0;orthogonalLoop=1;jettySize=auto;html=1;entryX=1;entryY=0.5;entryDx=0;entryDy=0;" edge="1" parent="WIyWlLk6GJQsqaUBKTNV-1" source="P1gIIQeME5yMetn6nnW5-16" target="P1gIIQeME5yMetn6nnW5-18">
          <mxGeometry relative="1" as="geometry">
            <Array as="points">
              <mxPoint x="531" y="970" />
            </Array>
          </mxGeometry>
        </mxCell>
        <mxCell id="P1gIIQeME5yMetn6nnW5-16" value="Tugas tambahan" style="whiteSpace=wrap;html=1;fillColor=#dae8fc;strokeColor=#6c8ebf;rounded=0;gradientColor=#7ea6e0;" vertex="1" parent="WIyWlLk6GJQsqaUBKTNV-1">
          <mxGeometry x="471" y="760" width="120" height="60" as="geometry" />
        </mxCell>
        <mxCell id="P1gIIQeME5yMetn6nnW5-25" style="edgeStyle=orthogonalEdgeStyle;rounded=0;orthogonalLoop=1;jettySize=auto;html=1;" edge="1" parent="WIyWlLk6GJQsqaUBKTNV-1" source="P1gIIQeME5yMetn6nnW5-18" target="P1gIIQeME5yMetn6nnW5-24">
          <mxGeometry relative="1" as="geometry" />
        </mxCell>
        <mxCell id="P1gIIQeME5yMetn6nnW5-18" value="Makrab&lt;div&gt;6-9 Agustus 2024&lt;/div&gt;&lt;div&gt;Yon Zipur 4&lt;/div&gt;" style="whiteSpace=wrap;html=1;fillColor=#dae8fc;strokeColor=#6c8ebf;rounded=0;gradientColor=#7ea6e0;" vertex="1" parent="WIyWlLk6GJQsqaUBKTNV-1">
          <mxGeometry x="246" y="940" width="120" height="60" as="geometry" />
        </mxCell>
        <mxCell id="P1gIIQeME5yMetn6nnW5-24" value="End" style="ellipse;whiteSpace=wrap;html=1;fillColor=#dae8fc;strokeColor=#6c8ebf;gradientColor=#7ea6e0;" vertex="1" parent="WIyWlLk6GJQsqaUBKTNV-1">
          <mxGeometry x="268" y="1070" width="76" height="50" as="geometry" />
        </mxCell>
      </root>
    </mxGraphModel>
  </diagram>
</mxfile>
